<svg width="31" height="31" viewBox="0 0 31 31" fill="none" xmlns="http://www.w3.org/2000/svg">
<path d="M23.1536 8.5415C23.0173 8.48523 22.8774 8.44359 22.7363 8.41426C22.621 7.8218 22.1985 7.26855 21.5316 6.8441C20.5991 6.25164 19.2079 6.49317 18.2952 7.40588C17.7507 7.9504 17.4277 8.66331 17.3609 9.4676C17.3286 9.85458 17.3371 10.1524 17.3439 10.3922C17.3558 10.8059 17.3558 10.8059 17.0328 11.1289L14.8135 13.3482C14.6122 13.5495 14.4968 13.8154 14.4806 14.0924C14.3573 14.1111 14.2374 14.1497 14.1259 14.2078C13.9208 14.0154 13.6488 13.9018 13.3588 13.8973C13.0438 13.8921 12.7456 14.0164 12.5288 14.2331C12.4571 14.3049 12.3949 14.3861 12.3432 14.4763L11.0601 16.7266C10.9179 16.9767 10.7512 17.1976 10.5654 17.3835C10.2471 17.7017 9.87104 17.9153 9.44798 18.0186C8.86996 18.1586 8.35558 18.4416 7.96045 18.8367C7.17141 19.6258 6.93022 20.7907 7.33133 21.8773C7.61108 22.6342 8.23565 23.1701 9.04433 23.347C9.36927 23.4184 9.69465 23.4259 9.99784 23.3756C10.2203 23.7859 10.5481 24.1335 10.9757 24.3962C12.0035 25.0285 13.2818 24.8658 14.157 23.991C14.9833 23.1647 15.1973 21.9504 14.7156 20.8228C14.4095 20.1061 14.416 20.0952 14.7582 19.5291C14.8252 19.4185 14.8965 19.3004 14.9704 19.1707L16.2939 16.8497C16.3256 16.7942 16.3505 16.7359 16.3723 16.6769C16.5148 16.8209 16.6945 16.9277 16.8974 16.98C17.2912 17.0821 17.7093 16.9683 17.997 16.6806L20.6371 14.0405C20.9106 13.767 21.0608 13.7429 21.6528 13.6842L21.7226 13.6771C22.3361 13.6161 23.2121 13.3301 23.8307 12.7115C23.8311 12.7111 23.8307 12.7115 23.8311 12.7111C24.397 12.1452 24.6575 11.3913 24.565 10.5877C24.4109 9.24948 23.6145 8.73132 23.1536 8.5415ZM15.2966 16.2812C14.7215 17.2898 14.1834 18.2338 13.9733 18.6024C13.4413 19.5359 13.0436 19.8293 13.6601 21.2732C14.3276 22.8364 12.771 24.1529 11.5769 23.4186C10.3828 22.6834 10.9024 21.2064 10.9543 21.0206C10.9543 21.0206 10.3991 21.2144 10.3674 21.8017C10.3359 22.3884 8.79905 22.5366 8.4081 21.4791C8.01735 20.421 8.59537 19.4067 9.71904 19.1338C10.8422 18.8604 11.5949 18.1064 12.0574 17.2952C12.2524 16.9528 12.7872 16.0149 13.3405 15.0448L13.7845 15.8851L14.6558 15.2259L15.2966 16.2812ZM23.4249 10.719C23.5693 11.9723 22.2692 12.469 21.609 12.5348C20.9485 12.6012 20.4203 12.6341 19.8255 13.2289C19.8255 13.2289 18.4444 14.61 17.1853 15.8691L16.846 14.6818L15.8315 15.0876L15.6251 14.1598C16.7098 13.0752 17.8444 11.9406 17.8444 11.9406C18.769 11.016 18.4057 10.7495 18.5048 9.56296C18.6366 7.97798 20.1889 7.35063 20.9157 7.81273C21.6419 8.27502 21.8985 8.91998 21.2456 9.26575C20.6843 9.56279 20.1887 10.5208 20.8496 9.992C21.5096 9.46389 23.2269 9.00159 23.4249 10.719Z" fill="#EDE4E4"/>
<path d="M13.5157 12.8914C13.6528 13.0285 13.8749 13.0287 14.012 12.8916C14.1491 12.7545 14.1489 12.5324 14.0118 12.3953C13.8749 12.2583 13.6528 12.2581 13.5157 12.3952C13.3785 12.5323 13.3787 12.7545 13.5157 12.8914Z" fill="#EDE4E4"/>
<path d="M12.4309 13.4803C12.5582 13.3531 12.5582 13.147 12.4312 13.02C12.3044 12.8932 12.0983 12.8932 11.9711 13.0204C11.8443 13.1472 11.8443 13.3533 11.9711 13.4801C12.0981 13.6071 12.3041 13.6071 12.4309 13.4803Z" fill="#EDE4E4"/>
<path d="M12.872 12.0456C13.019 11.8986 13.019 11.66 12.8718 11.5128C12.7246 11.3656 12.486 11.3655 12.339 11.5126C12.1916 11.66 12.1916 11.8986 12.3388 12.0458C12.486 12.193 12.7246 12.193 12.872 12.0456Z" fill="#EDE4E4"/>
<path d="M15.3817 12.2574C15.5038 12.1354 15.5038 11.938 15.3819 11.8162C15.2598 11.6941 15.0625 11.6941 14.9405 11.8161C14.8184 11.9382 14.8184 12.1355 14.9405 12.2576C15.0623 12.3795 15.2597 12.3795 15.3817 12.2574Z" fill="#EDE4E4"/>
<path d="M22.4584 23.1538C22.5146 23.0175 22.5563 22.8776 22.5856 22.7365C23.1781 22.6212 23.7313 22.1988 24.1558 21.5318C24.7482 20.5993 24.5067 19.2081 23.594 18.2954C23.0495 17.7509 22.3366 17.4279 21.5323 17.3611C21.1453 17.3289 20.8475 17.3373 20.6077 17.3441C20.194 17.356 20.194 17.356 19.871 17.033L17.6517 14.8137C17.4504 14.6124 17.1845 14.4971 16.9074 14.4808C16.8888 14.3576 16.8502 14.2377 16.7921 14.1261C16.9845 13.921 17.098 13.649 17.1026 13.3591C17.1078 13.044 16.9835 12.7458 16.7667 12.5291C16.695 12.4573 16.6138 12.3951 16.5236 12.3434L14.2732 11.0604C14.0232 10.9181 13.8023 10.7515 13.6164 10.5656C13.2981 10.2474 13.0845 9.87128 12.9813 9.44823C12.8412 8.87021 12.5583 8.35582 12.1632 7.96069C11.3741 7.17165 10.2092 6.93047 9.12254 7.33157C8.36564 7.61133 7.82982 8.23589 7.65287 9.04457C7.58153 9.36951 7.57402 9.69489 7.62431 9.99808C7.21395 10.2206 6.86639 10.5483 6.60365 10.9759C5.97137 12.0037 6.13407 13.282 7.00888 14.1573C7.83515 14.9835 9.04946 15.1976 10.1771 14.7158C10.8938 14.4097 10.9047 14.4163 11.4708 14.7585C11.5814 14.8254 11.6995 14.8967 11.8292 14.9707L14.1502 16.2941C14.2057 16.3258 14.2639 16.3508 14.323 16.3726C14.1789 16.5151 14.0722 16.6948 14.0198 16.8977C13.9178 17.2914 14.0316 17.7095 14.3193 17.9972L16.9594 20.6374C17.2329 20.9108 17.257 21.061 17.3157 21.6531L17.3228 21.7228C17.3838 22.3363 17.6697 23.2123 18.2884 23.8309C18.2888 23.8313 18.2884 23.8309 18.2888 23.8313C18.8547 24.3972 19.6086 24.6578 20.4121 24.5653C21.7504 24.4111 22.2686 23.6147 22.4584 23.1538ZM14.7187 15.2968C13.7101 14.7218 12.7661 14.1836 12.3975 13.9736C11.464 13.4416 11.1705 13.0439 9.72666 13.6603C8.16346 14.3279 6.84695 12.7712 7.5813 11.5771C8.31645 10.3831 9.79346 10.9026 9.97927 10.9546C9.97927 10.9546 9.78551 10.3993 9.19818 10.3677C8.61146 10.3361 8.46323 8.7993 9.52077 8.40834C10.5789 8.01759 11.5932 8.59561 11.8661 9.71928C12.1395 10.8424 12.8935 11.5952 13.7047 12.0577C14.0471 12.2526 14.9849 12.7875 15.9551 13.3407L15.1147 13.7848L15.774 14.656L14.7187 15.2968ZM20.2809 23.4251C19.0276 23.5696 18.5308 22.2695 18.4651 21.6093C18.3987 20.9488 18.3658 20.4205 17.771 19.8257C17.771 19.8257 16.3899 18.4446 15.1308 17.1855L16.3181 16.8463L15.9123 15.8318L16.84 15.6253C17.9247 16.71 19.0593 17.8446 19.0593 17.8446C19.9839 18.7692 20.2504 18.406 21.4369 18.505C23.0219 18.6368 23.6492 20.1891 23.1872 20.916C22.7249 21.6422 22.0799 21.8988 21.7341 21.2459C21.4371 20.6846 20.4791 20.189 21.0079 20.8498C21.536 21.5098 21.9983 23.2272 20.2809 23.4251Z" fill="#EDE4E4"/>
<path d="M18.1084 13.516C17.9712 13.6532 17.971 13.8753 18.1082 14.0124C18.2452 14.1495 18.4674 14.1493 18.6045 14.0122C18.7414 13.8753 18.7416 13.6531 18.6045 13.516C18.4674 13.3789 18.2453 13.3791 18.1084 13.516Z" fill="#EDE4E4"/>
<path d="M17.52 12.4309C17.6472 12.5582 17.8532 12.5582 17.9803 12.4312C18.107 12.3044 18.1071 12.0983 17.9798 11.9711C17.853 11.8443 17.647 11.8443 17.5202 11.9711C17.3932 12.0981 17.3931 12.3041 17.52 12.4309Z" fill="#EDE4E4"/>
<path d="M18.9544 12.8721C19.1014 13.0191 19.34 13.0191 19.4872 12.8719C19.6344 12.7247 19.6345 12.4861 19.4874 12.3391C19.34 12.1917 19.1014 12.1917 18.9542 12.3389C18.807 12.4861 18.807 12.7247 18.9544 12.8721Z" fill="#EDE4E4"/>
<path d="M18.7424 15.3817C18.8644 15.5038 19.0617 15.5038 19.1836 15.3819C19.3057 15.2598 19.3057 15.0625 19.1836 14.9405C19.0616 14.8184 18.8642 14.8184 18.7422 14.9405C18.6203 15.0623 18.6203 15.2597 18.7424 15.3817Z" fill="#EDE4E4"/>
</svg>
