<svg width="30" height="30" viewBox="0 0 30 30" fill="none" xmlns="http://www.w3.org/2000/svg">
<g clip-path="url(#clip0_382_25)">
<path d="M22.5032 7.89074C22.3669 7.83448 22.227 7.79283 22.0859 7.76351C21.9706 7.17105 21.5481 6.6178 20.8812 6.19335C19.9487 5.60088 18.5575 5.84242 17.6448 6.75512C17.1003 7.29964 16.7773 8.01255 16.7105 8.81685C16.6782 9.20383 16.6867 9.50165 16.6935 9.74142C16.7054 10.1552 16.7054 10.1552 16.3824 10.4781L14.1631 12.6974C13.9618 12.8987 13.8464 13.1647 13.8302 13.4417C13.7069 13.4603 13.587 13.499 13.4755 13.557C13.2704 13.3646 12.9984 13.2511 12.7085 13.2465C12.3934 13.2414 12.0952 13.3656 11.8784 13.5824C11.8067 13.6541 11.7445 13.7353 11.6928 13.8255L10.4097 16.0759C10.2675 16.326 10.1008 16.5469 9.91497 16.7327C9.59672 17.051 9.22065 17.2646 8.79759 17.3678C8.21957 17.5079 7.70519 17.7908 7.31006 18.186C6.52102 18.975 6.27983 20.1399 6.68094 21.2266C6.96069 21.9835 7.58526 22.5193 8.39393 22.6962C8.71888 22.7676 9.04426 22.7751 9.34745 22.7248C9.56992 23.1352 9.89771 23.4827 10.3253 23.7455C11.3531 24.3778 12.6314 24.215 13.5066 23.3402C14.3329 22.514 14.5469 21.2997 14.0652 20.172C13.7591 19.4553 13.7656 19.4444 14.1078 18.8783C14.1748 18.7678 14.2461 18.6497 14.3201 18.5199L15.6435 16.1989C15.6752 16.1435 15.7001 16.0852 15.7219 16.0261C15.8644 16.1702 16.0441 16.277 16.247 16.3293C16.6408 16.4313 17.0589 16.3176 17.3466 16.0299L19.9867 13.3897C20.2602 13.1163 20.4104 13.0921 21.0024 13.0335L21.0722 13.0263C21.6857 12.9653 22.5617 12.6794 23.1803 12.0608C23.1807 12.0604 23.1803 12.0608 23.1807 12.0604C23.7466 11.4945 24.0072 10.7405 23.9146 9.93698C23.7605 8.59872 22.9641 8.08056 22.5032 7.89074ZM14.6462 15.6304C14.0711 16.6391 13.533 17.583 13.3229 17.9516C12.7909 18.8851 12.3932 19.1786 13.0097 20.6225C13.6772 22.1857 12.1206 23.5022 10.9265 22.7678C9.73246 22.0327 10.252 20.5557 10.3039 20.3698C10.3039 20.3698 9.74867 20.5636 9.71703 21.1509C9.68547 21.7377 8.14866 21.8859 7.75771 20.8283C7.36696 19.7703 7.94498 18.7559 9.06865 18.4831C10.1918 18.2096 10.9446 17.4557 11.407 16.6444C11.602 16.302 12.1368 15.3642 12.6901 14.394L13.1341 15.2344L14.0054 14.5751L14.6462 15.6304ZM22.7745 10.0682C22.9189 11.3215 21.6188 11.8183 20.9586 11.8841C20.2982 11.9504 19.7699 11.9833 19.1751 12.5782C19.1751 12.5782 17.794 13.9593 16.5349 15.2183L16.1956 14.031L15.1811 14.4368L14.9747 13.5091C16.0594 12.4244 17.194 11.2898 17.194 11.2898C18.1186 10.3652 17.7553 10.0987 17.8544 8.91221C17.9862 7.32722 19.5385 6.69987 20.2653 7.16197C20.9915 7.62427 21.2482 8.26922 20.5953 8.61499C20.0339 8.91203 19.5383 9.87007 20.1992 9.34124C20.8592 8.81313 22.5765 8.35084 22.7745 10.0682Z" fill="#010101"/>
<path d="M12.8653 12.2406C13.0024 12.3778 13.2245 12.378 13.3617 12.2408C13.4987 12.1037 13.4985 11.8816 13.3614 11.7445C13.2245 11.6076 13.0024 11.6074 12.8653 11.7445C12.7282 11.8816 12.7284 12.1037 12.8653 12.2406Z" fill="#010101"/>
<path d="M11.7806 12.8295C11.9078 12.7023 11.9078 12.4962 11.7808 12.3692C11.654 12.2424 11.4479 12.2424 11.3207 12.3696C11.1939 12.4964 11.1939 12.7025 11.3207 12.8293C11.4477 12.9563 11.6537 12.9564 11.7806 12.8295Z" fill="#010101"/>
<path d="M12.2216 11.3948C12.3686 11.2478 12.3686 11.0093 12.2214 10.862C12.0742 10.7148 11.8356 10.7148 11.6886 10.8618C11.5412 11.0093 11.5412 11.2478 11.6884 11.395C11.8356 11.5423 12.0742 11.5423 12.2216 11.3948Z" fill="#010101"/>
<path d="M14.7313 11.6066C14.8534 11.4846 14.8534 11.2873 14.7315 11.1654C14.6094 11.0433 14.4121 11.0433 14.2901 11.1654C14.168 11.2874 14.168 11.4848 14.2901 11.6068C14.4119 11.7287 14.6093 11.7287 14.7313 11.6066Z" fill="#010101"/>
<path d="M21.808 22.5031C21.8643 22.3668 21.9059 22.2269 21.9352 22.0858C22.5277 21.9705 23.0809 21.548 23.5054 20.881C24.0978 19.9486 23.8563 18.5574 22.9436 17.6447C22.3991 17.1001 21.6862 16.7771 20.8819 16.7104C20.4949 16.6781 20.1971 16.6866 19.9573 16.6933C19.5436 16.7052 19.5436 16.7052 19.2206 16.3823L17.0013 14.163C16.8 13.9617 16.5341 13.8463 16.257 13.8301C16.2384 13.7068 16.1998 13.5869 16.1417 13.4754C16.3341 13.2703 16.4476 12.9982 16.4522 12.7083C16.4574 12.3933 16.3331 12.0951 16.1164 11.8783C16.0446 11.8066 15.9634 11.7444 15.8732 11.6927L13.6228 10.4096C13.3728 10.2673 13.1519 10.1007 12.966 9.91484C12.6477 9.5966 12.4341 9.22053 12.3309 8.79747C12.1908 8.21945 11.9079 7.70506 11.5128 7.30993C10.7237 6.52089 9.55881 6.27971 8.47215 6.68081C7.71525 6.96057 7.17943 7.58514 7.00248 8.39381C6.93114 8.71876 6.92363 9.04413 6.97392 9.34733C6.56356 9.5698 6.216 9.89759 5.95326 10.3252C5.32098 11.353 5.48368 12.6312 6.35848 13.5065C7.18476 14.3328 8.39907 14.5468 9.52671 14.0651C10.2434 13.7589 10.2543 13.7655 10.8204 14.1077C10.931 14.1747 11.0491 14.246 11.1788 14.3199L13.4998 15.6433C13.5553 15.6751 13.6136 15.7 13.6726 15.7218C13.5286 15.8643 13.4218 16.044 13.3694 16.2469C13.2674 16.6407 13.3812 17.0588 13.6689 17.3465L16.309 19.9866C16.5825 20.2601 16.6066 20.4102 16.6653 21.0023L16.6724 21.0721C16.7334 21.6855 17.0193 22.5616 17.638 23.1802C17.6384 23.1806 17.638 23.1802 17.6384 23.1806C18.2043 23.7465 18.9582 24.007 19.7618 23.9145C21.1 23.7604 21.6182 22.964 21.808 22.5031ZM14.0683 14.646C13.0597 14.071 12.1157 13.5328 11.7471 13.3228C10.8136 12.7908 10.5202 12.3931 9.07627 13.0095C7.51307 13.6771 6.19656 12.1205 6.9309 10.9264C7.66606 9.73233 9.14306 10.2519 9.32888 10.3038C9.32888 10.3038 9.13512 9.74855 8.54779 9.7169C7.96107 9.68535 7.81284 8.14854 8.87038 7.75759C9.92848 7.36684 10.9428 7.94486 11.2157 9.06853C11.4891 10.1916 12.2431 10.9444 13.0543 11.4069C13.3967 11.6019 14.3346 12.1367 15.3047 12.69L14.4643 13.134L15.1236 14.0053L14.0683 14.646ZM19.6305 22.7743C18.3772 22.9188 17.8805 21.6187 17.8147 20.9585C17.7483 20.298 17.7154 19.7698 17.1206 19.1749C17.1206 19.1749 15.7395 17.7938 14.4804 16.5348L15.6677 16.1955L15.2619 15.181L16.1896 14.9746C17.2743 16.0593 18.4089 17.1939 18.4089 17.1939C19.3335 18.1184 19.6 17.7552 20.7865 17.8543C22.3715 17.9861 22.9989 19.5384 22.5368 20.2652C22.0745 20.9914 21.4295 21.248 21.0837 20.5951C20.7867 20.0338 19.8287 19.5382 20.3575 20.199C20.8856 20.8591 21.3479 22.5764 19.6305 22.7743Z" fill="#010101"/>
<path d="M17.458 12.8653C17.3208 13.0024 17.3206 13.2245 17.4578 13.3617C17.5949 13.4987 17.817 13.4985 17.9541 13.3614C18.091 13.2245 18.0912 13.0024 17.9541 12.8653C17.817 12.7282 17.5949 12.7284 17.458 12.8653Z" fill="#010101"/>
<path d="M16.8696 11.7802C16.9968 11.9074 17.2029 11.9074 17.3299 11.7804C17.4567 11.6536 17.4567 11.4475 17.3295 11.3203C17.2027 11.1935 16.9966 11.1935 16.8698 11.3203C16.7428 11.4473 16.7427 11.6534 16.8696 11.7802Z" fill="#010101"/>
<path d="M18.304 12.2213C18.4511 12.3684 18.6896 12.3684 18.8368 12.2211C18.984 12.0739 18.9841 11.8354 18.837 11.6883C18.6896 11.5409 18.451 11.5409 18.3038 11.6881C18.1566 11.8354 18.1566 12.0739 18.304 12.2213Z" fill="#010101"/>
<path d="M18.092 14.731C18.214 14.853 18.4113 14.853 18.5332 14.7312C18.6553 14.6091 18.6553 14.4117 18.5332 14.2897C18.4112 14.1676 18.2138 14.1676 18.0918 14.2897C17.9699 14.4116 17.9699 14.6089 18.092 14.731Z" fill="#010101"/>
</g>
<defs>
<clipPath id="clip0_382_25">
<rect width="21" height="21" fill="white" transform="translate(14.8496) rotate(45)"/>
</clipPath>
</defs>
</svg>
