<svg width="107" height="57" viewBox="0 0 107 57" fill="none" xmlns="http://www.w3.org/2000/svg">
<path d="M2.52 20C2.30667 20 2.14 19.94 2.02 19.82C1.9 19.7 1.84 19.5267 1.84 19.3V6.6C1.84 6.37333 1.9 6.2 2.02 6.08C2.14 5.96 2.30667 5.9 2.52 5.9H6.38C8.62 5.9 10.3467 6.5 11.56 7.7C12.7867 8.9 13.4 10.6467 13.4 12.94C13.4 14.0867 13.24 15.1 12.92 15.98C12.6133 16.86 12.16 17.6 11.56 18.2C10.96 18.7867 10.2267 19.2333 9.36 19.54C8.49333 19.8467 7.5 20 6.38 20H2.52ZM3.06 18.92H6.28C7.25333 18.92 8.1 18.7933 8.82 18.54C9.55333 18.2867 10.16 17.9133 10.64 17.42C11.12 16.9267 11.48 16.3067 11.72 15.56C11.96 14.8 12.08 13.9267 12.08 12.94C12.08 10.9533 11.5933 9.46667 10.62 8.48C9.66 7.48 8.21333 6.98 6.28 6.98H3.06V18.92ZM22.928 20.16C22.0213 20.16 21.2346 19.9533 20.568 19.54C19.9013 19.1267 19.3813 18.5467 19.008 17.8C18.648 17.0533 18.468 16.1667 18.468 15.14C18.468 14.38 18.568 13.6933 18.768 13.08C18.9813 12.4667 19.2813 11.94 19.668 11.5C20.068 11.0467 20.5413 10.7067 21.088 10.48C21.648 10.24 22.2613 10.12 22.928 10.12C23.848 10.12 24.6413 10.3267 25.308 10.74C25.9746 11.1533 26.488 11.74 26.848 12.5C27.2213 13.2467 27.408 14.1267 27.408 15.14C27.408 15.9133 27.3013 16.6067 27.088 17.22C26.888 17.8333 26.588 18.36 26.188 18.8C25.8013 19.24 25.3346 19.58 24.788 19.82C24.2413 20.0467 23.6213 20.16 22.928 20.16ZM22.928 19.14C23.5946 19.14 24.168 18.9867 24.648 18.68C25.1413 18.36 25.5146 17.9 25.768 17.3C26.0346 16.7 26.168 15.98 26.168 15.14C26.168 13.8733 25.8746 12.8933 25.288 12.2C24.7146 11.5067 23.928 11.16 22.928 11.16C22.2746 11.16 21.7013 11.32 21.208 11.64C20.728 11.9467 20.3546 12.4 20.088 13C19.8346 13.5867 19.708 14.3 19.708 15.14C19.708 16.42 20.0013 17.4067 20.588 18.1C21.1746 18.7933 21.9546 19.14 22.928 19.14ZM33.6455 20.12C33.4588 20.12 33.3121 20.0667 33.2055 19.96C33.0988 19.84 33.0455 19.68 33.0455 19.48V6.42C33.0455 6.20667 33.0988 6.04667 33.2055 5.94C33.3121 5.83333 33.4588 5.78 33.6455 5.78C33.8455 5.78 33.9988 5.83333 34.1055 5.94C34.2121 6.04667 34.2655 6.20667 34.2655 6.42V12.3H43.2655V6.42C43.2655 6.20667 43.3188 6.04667 43.4255 5.94C43.5321 5.83333 43.6855 5.78 43.8855 5.78C44.0721 5.78 44.2188 5.83333 44.3255 5.94C44.4321 6.04667 44.4855 6.20667 44.4855 6.42V19.48C44.4855 19.68 44.4321 19.84 44.3255 19.96C44.2188 20.0667 44.0721 20.12 43.8855 20.12C43.6855 20.12 43.5321 20.0667 43.4255 19.96C43.3188 19.84 43.2655 19.68 43.2655 19.48V13.4H34.2655V19.48C34.2655 19.68 34.2121 19.84 34.1055 19.96C34.0121 20.0667 33.8588 20.12 33.6455 20.12ZM54.9427 20.16C53.9427 20.16 53.0827 19.96 52.3627 19.56C51.6427 19.16 51.0893 18.5867 50.7027 17.84C50.316 17.0933 50.1227 16.2067 50.1227 15.18C50.1227 14.1667 50.316 13.2867 50.7027 12.54C51.0893 11.78 51.6227 11.1867 52.3027 10.76C52.996 10.3333 53.7893 10.12 54.6827 10.12C55.336 10.12 55.9093 10.2333 56.4027 10.46C56.9093 10.6733 57.336 10.9867 57.6827 11.4C58.0427 11.8 58.316 12.2933 58.5027 12.88C58.6893 13.4533 58.7827 14.1067 58.7827 14.84C58.7827 15.0267 58.7293 15.1667 58.6227 15.26C58.5293 15.3533 58.396 15.4 58.2227 15.4H51.0027V14.5H58.0227L57.7027 14.76C57.7027 13.9867 57.5893 13.3333 57.3627 12.8C57.136 12.2533 56.796 11.8333 56.3427 11.54C55.9027 11.2467 55.356 11.1 54.7027 11.1C53.9693 11.1 53.3493 11.2733 52.8427 11.62C52.336 11.9533 51.956 12.42 51.7027 13.02C51.4493 13.6067 51.3227 14.2867 51.3227 15.06V15.16C51.3227 16.44 51.636 17.4267 52.2627 18.12C52.8893 18.8 53.7693 19.14 54.9027 19.14C55.396 19.14 55.8693 19.0733 56.3227 18.94C56.7893 18.8067 57.2427 18.58 57.6827 18.26C57.816 18.1667 57.9427 18.12 58.0627 18.12C58.196 18.12 58.3027 18.1533 58.3827 18.22C58.476 18.2867 58.536 18.3733 58.5627 18.48C58.6027 18.5733 58.596 18.68 58.5427 18.8C58.5027 18.9067 58.416 19.0067 58.2827 19.1C57.856 19.4467 57.3427 19.7133 56.7427 19.9C56.1427 20.0733 55.5427 20.16 54.9427 20.16ZM67.0695 20.16C66.4162 20.16 65.8295 20.0333 65.3095 19.78C64.8029 19.5267 64.3962 19.18 64.0895 18.74C63.7962 18.3 63.6495 17.8067 63.6495 17.26C63.6495 16.54 63.8295 15.9733 64.1895 15.56C64.5495 15.1467 65.1562 14.86 66.0095 14.7C66.8629 14.5267 68.0362 14.44 69.5295 14.44H70.3895V15.34H69.5495C68.3495 15.34 67.4095 15.3933 66.7295 15.5C66.0629 15.5933 65.5962 15.7733 65.3295 16.04C65.0629 16.3067 64.9295 16.68 64.9295 17.16C64.9295 17.76 65.1362 18.2467 65.5495 18.62C65.9629 18.9933 66.5229 19.18 67.2295 19.18C67.8029 19.18 68.3029 19.0467 68.7295 18.78C69.1695 18.5 69.5162 18.12 69.7695 17.64C70.0229 17.16 70.1495 16.6133 70.1495 16V13.72C70.1495 12.8267 69.9695 12.18 69.6095 11.78C69.2495 11.3667 68.6762 11.16 67.8895 11.16C67.3829 11.16 66.8895 11.2267 66.4095 11.36C65.9429 11.4933 65.4429 11.7067 64.9095 12C64.7629 12.08 64.6295 12.1067 64.5095 12.08C64.4029 12.0533 64.3162 12 64.2495 11.92C64.1962 11.84 64.1562 11.7467 64.1295 11.64C64.1162 11.52 64.1362 11.4067 64.1895 11.3C64.2429 11.1933 64.3362 11.1067 64.4695 11.04C65.0295 10.7333 65.5962 10.5067 66.1695 10.36C66.7562 10.2 67.3229 10.12 67.8695 10.12C68.6562 10.12 69.3029 10.2533 69.8095 10.52C70.3295 10.7867 70.7095 11.1867 70.9495 11.72C71.2029 12.2533 71.3295 12.94 71.3295 13.78V19.5C71.3295 19.7 71.2829 19.8533 71.1895 19.96C71.0962 20.0667 70.9562 20.12 70.7695 20.12C70.5829 20.12 70.4362 20.0667 70.3295 19.96C70.2229 19.8533 70.1695 19.7 70.1695 19.5V17.66H70.3695C70.2495 18.18 70.0362 18.6267 69.7295 19C69.4229 19.3733 69.0429 19.66 68.5895 19.86C68.1362 20.06 67.6295 20.16 67.0695 20.16ZM80.1188 20.16C79.2254 20.16 78.5321 19.88 78.0388 19.32C77.5588 18.76 77.3188 17.9667 77.3188 16.94V6.4C77.3188 6.18667 77.3721 6.03333 77.4788 5.94C77.5854 5.83333 77.7388 5.78 77.9388 5.78C78.1254 5.78 78.2721 5.83333 78.3788 5.94C78.4854 6.03333 78.5388 6.18667 78.5388 6.4V16.8C78.5388 17.5733 78.6921 18.1533 78.9988 18.54C79.3054 18.9133 79.7521 19.1 80.3388 19.1C80.4721 19.1 80.5854 19.0933 80.6788 19.08C80.7721 19.0667 80.8654 19.06 80.9588 19.06C81.0788 19.0467 81.1654 19.0733 81.2188 19.14C81.2854 19.1933 81.3188 19.3133 81.3188 19.5C81.3188 19.6867 81.2721 19.8267 81.1788 19.92C81.0854 20.0133 80.9321 20.08 80.7188 20.12C80.6254 20.1333 80.5254 20.14 80.4188 20.14C80.3254 20.1533 80.2254 20.16 80.1188 20.16ZM89.3452 20.16C88.6252 20.16 88.0252 20.0267 87.5452 19.76C87.0652 19.4933 86.7052 19.1133 86.4652 18.62C86.2252 18.1133 86.1052 17.4933 86.1052 16.76V11.28H84.6252C84.4518 11.28 84.3118 11.24 84.2052 11.16C84.0985 11.0667 84.0452 10.94 84.0452 10.78C84.0452 10.6333 84.0985 10.52 84.2052 10.44C84.3118 10.3467 84.4518 10.3 84.6252 10.3H86.1052V7.8C86.1052 7.58667 86.1585 7.43333 86.2652 7.34C86.3718 7.23333 86.5252 7.18 86.7252 7.18C86.9118 7.18 87.0585 7.23333 87.1652 7.34C87.2718 7.43333 87.3252 7.58667 87.3252 7.8V10.3H90.0252C90.2118 10.3 90.3518 10.3467 90.4452 10.44C90.5385 10.52 90.5852 10.6333 90.5852 10.78C90.5852 10.94 90.5385 11.0667 90.4452 11.16C90.3518 11.24 90.2118 11.28 90.0252 11.28H87.3252V16.6C87.3252 17.4133 87.4918 18.0333 87.8252 18.46C88.1585 18.8867 88.7118 19.1 89.4852 19.1C89.7518 19.1 89.9718 19.0733 90.1452 19.02C90.3318 18.9533 90.4852 18.92 90.6052 18.92C90.6985 18.92 90.7785 18.96 90.8452 19.04C90.9252 19.12 90.9652 19.2467 90.9652 19.42C90.9652 19.5267 90.9385 19.6333 90.8852 19.74C90.8452 19.8467 90.7652 19.9133 90.6452 19.94C90.4985 19.9933 90.2985 20.04 90.0452 20.08C89.7918 20.1333 89.5585 20.16 89.3452 20.16ZM95.863 20.12C95.663 20.12 95.5096 20.0667 95.403 19.96C95.2963 19.8533 95.243 19.7 95.243 19.5V6.4C95.243 6.18667 95.2963 6.03333 95.403 5.94C95.5096 5.83333 95.663 5.78 95.863 5.78C96.0496 5.78 96.1963 5.83333 96.303 5.94C96.4096 6.03333 96.463 6.18667 96.463 6.4V12.56H96.223C96.4896 11.76 96.943 11.1533 97.583 10.74C98.2363 10.3267 98.983 10.12 99.823 10.12C100.596 10.12 101.236 10.26 101.743 10.54C102.263 10.82 102.65 11.24 102.903 11.8C103.156 12.36 103.283 13.0533 103.283 13.88V19.5C103.283 19.7 103.23 19.8533 103.123 19.96C103.016 20.0667 102.87 20.12 102.683 20.12C102.483 20.12 102.33 20.0667 102.223 19.96C102.116 19.8533 102.063 19.7 102.063 19.5V13.98C102.063 13.0067 101.87 12.3 101.483 11.86C101.096 11.4067 100.483 11.18 99.643 11.18C98.683 11.18 97.9096 11.48 97.323 12.08C96.7496 12.6667 96.463 13.46 96.463 14.46V19.5C96.463 19.9133 96.263 20.12 95.863 20.12Z" fill="#EDE4E4"/>
<path d="M36.24 49.12C36.1067 49.12 36.0067 49.0933 35.94 49.04C35.8733 48.9867 35.84 48.9133 35.84 48.82C35.84 48.7133 35.8667 48.6 35.92 48.48L41.64 35.2C41.7067 35.0533 41.7867 34.9467 41.88 34.88C41.9733 34.8133 42.0667 34.78 42.16 34.78C42.2667 34.78 42.3667 34.8133 42.46 34.88C42.5533 34.9467 42.6267 35.0533 42.68 35.2L48.4 48.48C48.4533 48.6 48.48 48.7133 48.48 48.82C48.48 48.9133 48.4533 48.9867 48.4 49.04C48.3467 49.0933 48.2533 49.12 48.12 49.12C47.9867 49.12 47.8733 49.08 47.78 49C47.7 48.92 47.6333 48.82 47.58 48.7L45.96 44.92L46.5 45.1H37.78L38.34 44.92L36.72 48.7C36.6667 48.8467 36.5933 48.9533 36.5 49.02C36.4067 49.0867 36.32 49.12 36.24 49.12ZM42.14 36.04L38.56 44.44L38.12 44.32H46.16L45.76 44.44L42.18 36.04H42.14ZM51.6564 49.12C51.5231 49.12 51.4164 49.08 51.3364 49C51.2697 48.92 51.2364 48.8133 51.2364 48.68V35.34C51.2364 35.1933 51.2764 35.0867 51.3564 35.02C51.4364 34.94 51.5431 34.9 51.6764 34.9H56.3364C57.8164 34.9 58.9497 35.2533 59.7364 35.96C60.5231 36.6667 60.9164 37.6733 60.9164 38.98C60.9164 40.2867 60.5231 41.2933 59.7364 42C58.9497 42.7067 57.8164 43.06 56.3364 43.06H52.0764V48.68C52.0764 48.8133 52.0431 48.92 51.9764 49C51.9097 49.08 51.8031 49.12 51.6564 49.12ZM52.0764 42.28H56.3164C57.5564 42.28 58.4831 42 59.0964 41.44C59.7231 40.88 60.0364 40.06 60.0364 38.98C60.0364 37.9 59.7231 37.08 59.0964 36.52C58.4831 35.96 57.5564 35.68 56.3164 35.68H52.0764V42.28ZM63.9806 49.12C63.8473 49.12 63.7406 49.08 63.6606 49C63.594 48.92 63.5606 48.8133 63.5606 48.68V35.34C63.5606 35.1933 63.6006 35.0867 63.6806 35.02C63.7606 34.94 63.8673 34.9 64.0006 34.9H68.6606C70.1406 34.9 71.274 35.2533 72.0606 35.96C72.8473 36.6667 73.2406 37.6733 73.2406 38.98C73.2406 40.2867 72.8473 41.2933 72.0606 42C71.274 42.7067 70.1406 43.06 68.6606 43.06H64.4006V48.68C64.4006 48.8133 64.3673 48.92 64.3006 49C64.234 49.08 64.1273 49.12 63.9806 49.12ZM64.4006 42.28H68.6406C69.8806 42.28 70.8073 42 71.4206 41.44C72.0473 40.88 72.3606 40.06 72.3606 38.98C72.3606 37.9 72.0473 37.08 71.4206 36.52C70.8073 35.96 69.8806 35.68 68.6406 35.68H64.4006V42.28Z" fill="#EDE4E4"/>
<line x1="9" y1="28.9" x2="99" y2="28.9" stroke="#EDE4E4" stroke-width="0.2"/>
<g clip-path="url(#clip0_368_191)">
<path d="M83.1566 49.3626L77.247 45.8053C76.3938 45.2917 75.9834 44.3942 76.3348 43.8105C76.6866 43.2261 77.6718 43.1687 78.525 43.6823L84.4346 47.2396L83.1566 49.3626Z" stroke="#EDE4E4" stroke-width="0.4" stroke-miterlimit="10" stroke-linecap="round" stroke-linejoin="round"/>
<path d="M85.5201 47.4163L83.8204 50.24C83.7572 50.345 83.5788 50.3554 83.4244 50.2624L83.1109 50.0737C82.9565 49.9808 82.8822 49.8183 82.9454 49.7132L84.6451 46.8896C84.7087 46.784 84.8871 46.7736 85.0415 46.8665L85.355 47.0552C85.5094 47.1482 85.5837 47.3106 85.5201 47.4163Z" stroke="#EDE4E4" stroke-width="0.4" stroke-miterlimit="10" stroke-linecap="round" stroke-linejoin="round"/>
<path d="M72.788 41.7063L76.1553 43.7333" stroke="#EDE4E4" stroke-width="0.4" stroke-miterlimit="10" stroke-linecap="round" stroke-linejoin="round"/>
<path d="M82.3369 48.147L82.0177 48.6773" stroke="#EDE4E4" stroke-width="0.4" stroke-miterlimit="10" stroke-linecap="round" stroke-linejoin="round"/>
<path d="M81.5605 47.0945L80.9828 48.0543" stroke="#EDE4E4" stroke-width="0.4" stroke-miterlimit="10" stroke-linecap="round" stroke-linejoin="round"/>
<path d="M80.2686 46.9016L79.9493 47.4319" stroke="#EDE4E4" stroke-width="0.4" stroke-miterlimit="10" stroke-linecap="round" stroke-linejoin="round"/>
<path d="M79.4922 45.8491L78.9144 46.809" stroke="#EDE4E4" stroke-width="0.4" stroke-miterlimit="10" stroke-linecap="round" stroke-linejoin="round"/>
<path d="M78.1992 45.6562L77.88 46.1865" stroke="#EDE4E4" stroke-width="0.4" stroke-miterlimit="10" stroke-linecap="round" stroke-linejoin="round"/>
<path d="M87.141 50.7915L84.4597 49.1775L84.7542 48.6882L87.4355 50.3022C87.3731 50.3689 87.3156 50.446 87.2636 50.5324C87.2119 50.6182 87.1707 50.7052 87.141 50.7915ZM83.5847 48.6508L83.5611 48.6365L83.8556 48.1473L83.8792 48.1615L83.5847 48.6508Z" stroke="#EDE4E4" stroke-width="0.4" stroke-miterlimit="10" stroke-linecap="round" stroke-linejoin="round"/>
<path d="M87.2634 50.5325C87.025 50.9285 87.019 51.3661 87.2507 51.5056C87.4824 51.6451 87.8664 51.435 88.1047 51.039C88.3435 50.6423 88.3491 50.2053 88.1174 50.0659C87.8857 49.9264 87.5021 50.1359 87.2634 50.5325Z" stroke="#EDE4E4" stroke-width="0.4" stroke-miterlimit="10" stroke-linecap="round" stroke-linejoin="round"/>
<path d="M77.8707 55.7861L73.5807 62.9128C73.0422 63.8074 71.5323 63.8953 70.2248 63.1083C68.9182 62.3218 68.2893 60.9464 68.8278 60.0518L73.1178 52.925C73.6562 52.0304 75.1661 51.9425 76.4727 52.729C77.7802 53.516 78.4092 54.8915 77.8707 55.7861Z" stroke="#EDE4E4" stroke-width="0.4" stroke-miterlimit="10" stroke-linecap="round" stroke-linejoin="round"/>
<path d="M76.4214 58.1944L75.0309 60.5045C74.7719 60.9347 74.0455 60.9776 73.4158 60.5986L70.9507 59.1147C70.321 58.7357 70.019 58.0737 70.2779 57.6435L71.6685 55.3334C71.9275 54.9032 72.6539 54.8603 73.2836 55.2393L75.7486 56.7231C76.3783 57.1022 76.6804 57.7642 76.4214 58.1944Z" stroke="#EDE4E4" stroke-width="0.4" stroke-miterlimit="10" stroke-linecap="round" stroke-linejoin="round"/>
<path d="M75.3049 53.4818L75.3135 53.4869" stroke="#EDE4E4" stroke-width="0.4" stroke-miterlimit="10" stroke-linecap="round" stroke-linejoin="round"/>
<path d="M75.9494 55.2294L75.958 55.2346" stroke="#EDE4E4" stroke-width="0.4" stroke-miterlimit="10" stroke-linecap="round" stroke-linejoin="round"/>
<path d="M73.9475 54.2147L73.9561 54.2198" stroke="#EDE4E4" stroke-width="0.4" stroke-miterlimit="10" stroke-linecap="round" stroke-linejoin="round"/>
<path d="M71.3282 40.7756C70.8903 41.5032 69.6623 41.5747 68.5998 40.9352L60.8681 36.281C59.9973 35.7569 59.4961 34.9102 59.5843 34.2219L56.19 32.1787C55.8868 31.9961 55.7404 31.676 55.8657 31.4678C55.9906 31.2603 56.342 31.2398 56.6453 31.4224L60.0396 33.4656C60.6066 33.0655 61.5893 33.1122 62.4601 33.6363L70.1918 38.2905C71.2542 38.93 71.7658 40.0487 71.3282 40.7756Z" stroke="#EDE4E4" stroke-width="0.4" stroke-miterlimit="10" stroke-linecap="round" stroke-linejoin="round"/>
<path d="M69.0127 39.3817L60.4836 34.2476" stroke="#EDE4E4" stroke-width="0.4" stroke-miterlimit="10" stroke-linecap="round" stroke-linejoin="round"/>
<path d="M69.0118 39.383C68.8951 39.5768 69.0308 39.8737 69.3141 40.0442C69.5973 40.2147 69.9232 40.1957 70.0398 40.0019C70.1565 39.8081 70.0212 39.5106 69.7379 39.3401C69.4547 39.1696 69.1284 39.1892 69.0118 39.383Z" stroke="#EDE4E4" stroke-width="0.4" stroke-miterlimit="10" stroke-linecap="round" stroke-linejoin="round"/>
</g>
<defs>
<clipPath id="clip0_368_191">
<rect width="13" height="19" fill="white" transform="translate(91.9824 45.7988) rotate(121.046)"/>
</clipPath>
</defs>
</svg>
