<svg width="64" height="64" viewBox="0 0 64 64" fill="none" xmlns="http://www.w3.org/2000/svg">
<path d="M9.56035 32.52C9.56093 30.6434 9.80292 28.7747 10.2804 26.96L10.9204 24.32L5.68035 22.96L5.00035 25.6C3.75531 30.5107 3.8659 35.6671 5.32035 40.52L6.08035 43.12L11.2804 41.56L10.5204 38.96C9.88036 36.8733 9.55676 34.7025 9.56035 32.52ZM18.2804 50.08L16.0004 48.48L12.6804 52.76L14.8804 54.44C18.9349 57.4678 23.7577 59.2971 28.8004 59.72L31.4804 60L32.0004 54.56L29.3204 54.32C25.3251 53.9289 21.5103 52.4637 18.2804 50.08ZM57.6003 21.48C54.6818 14.5959 49.1487 9.15283 42.2178 6.34745C35.2869 3.54208 27.5255 3.60413 20.6404 6.51995C17.0227 8.01896 13.7643 10.2685 11.0804 13.12L16.0004 17.92C18.1627 15.6167 20.8107 13.8238 23.7521 12.6714C26.6936 11.5189 29.8548 11.0359 33.0063 11.2573C36.1577 11.4787 39.2203 12.3991 41.9717 13.9515C44.7232 15.5039 47.0945 17.6494 48.9134 20.2324C50.7324 22.8154 51.9535 25.771 52.488 28.8846C53.0225 31.9983 52.8571 35.1919 52.0036 38.2336C51.1502 41.2753 49.6302 44.0889 47.554 46.47C45.4778 48.8512 42.8975 50.7402 40.0004 52L42.7204 58.4C49.5729 55.4576 54.9834 49.9243 57.7712 43.0074C60.5589 36.0905 60.4975 28.3517 57.6003 21.48Z" fill="black" stroke="#EDE4E4" stroke-width="4.864" stroke-linecap="round" stroke-linejoin="round"/>
<path d="M9.56035 32.52C9.56093 30.6434 9.80292 28.7747 10.2804 26.96L10.9204 24.32L5.68035 22.96L5.00035 25.6C3.75531 30.5107 3.8659 35.6671 5.32035 40.52L6.08035 43.12L11.2804 41.56L10.5204 38.96C9.88036 36.8733 9.55676 34.7025 9.56035 32.52ZM18.2804 50.08L16.0004 48.48L12.6804 52.76L14.8804 54.44C18.9349 57.4678 23.7577 59.2971 28.8004 59.72L31.4804 60L32.0004 54.56L29.3204 54.32C25.3251 53.9289 21.5103 52.4637 18.2804 50.08ZM57.6003 21.48C54.6818 14.5959 49.1487 9.15283 42.2178 6.34745C35.2869 3.54208 27.5255 3.60413 20.6404 6.51995C17.0227 8.01896 13.7643 10.2685 11.0804 13.12L16.0004 17.92C18.1627 15.6167 20.8107 13.8238 23.7521 12.6714C26.6936 11.5189 29.8548 11.0359 33.0063 11.2573C36.1577 11.4787 39.2203 12.3991 41.9717 13.9515C44.7232 15.5039 47.0945 17.6494 48.9134 20.2324C50.7324 22.8154 51.9535 25.771 52.488 28.8846C53.0225 31.9983 52.8571 35.1919 52.0036 38.2336C51.1502 41.2753 49.6302 44.0889 47.554 46.47C45.4778 48.8512 42.8975 50.7402 40.0004 52L42.7204 58.4C49.5729 55.4576 54.9834 49.9243 57.7712 43.0074C60.5589 36.0905 60.4975 28.3517 57.6003 21.48Z" fill="black" stroke="black" stroke-width="1.408"/>
</svg>
